ffmpeg started on 2025-06-04 at 19:46:04
Report written to "D:\Convert\FFMetrics\reports\psnr_report-6.txt"
Log level: 32
Command line:
ffmpeg -hide_banner -nostdin -i "G:\\\xc0\xed\xe8\xec\xe5\\\xce\xed\xe3\xee\xe8\xed\xe3\xe8\\!_36_\xce\xf1\xe5\xed\xfc_2024\\DreamCast\\\xc2\xfb \xef\xf0\xe0\xe2\xe4\xe0 \xe6\xe5\xed\xe8\xf2\xe5\xf1\xfc\\[DC] Kekkon Surutte Hontou Desuka - 12 END_Telegram_HEVC.mkv" -i "G:\\\xc0\xed\xe8\xec\xe5\\\xce\xed\xe3\xee\xe8\xed\xe3\xe8\\!_36_\xce\xf1\xe5\xed\xfc_2024\\DreamCast\\\xc2\xfb \xef\xf0\xe0\xe2\xe4\xe0 \xe6\xe5\xed\xe8\xf2\xe5\xf1\xfc\\[DC] Kekkon Surutte Hontou Desuka - 12 END_Telegram.mp4" -lavfi "[0:v]settb=AVTB,setpts=PTS-STARTPTS,format=pix_fmts=yuv420p10,fps=24000/1001,scale=1920:1080:flags=bicubic[main];[1:v]settb=AVTB,setpts=PTS-STARTPTS,format=pix_fmts=yuv420p,fps=24000/1001,scale=1920:1080:flags=bicubic[ref];[main][ref]psnr=eof_action=endall:stats_file='D\\:/Convert/FFMetrics/logs/psnr_logfile-6.txt'" -f null -
Input #0, matroska,webm, from 'G:\Аниме\Онгоинги\!_36_Осень_2024\DreamCast\Вы правда женитесь\[DC] Kekkon Surutte Hontou Desuka - 12 END_Telegram_HEVC.mkv':
  Metadata:
    COMPATIBLE_BRANDS: isomiso2avc1mp41
    MAJOR_BRAND     : isom
    MINOR_VERSION   : 512
    ENCODER         : Lavf61.7.100
  Duration: 00:23:47.71, start: -0.021000, bitrate: 1167 kb/s
  Stream #0:0: Video: hevc (Main 10), yuv420p10le(tv, bt709, progressive), 1920x1080 [SAR 1:1 DAR 16:9], 23.98 fps, 23.98 tbr, 1k tbn (default)
      Metadata:
        HANDLER_NAME    : VideoHandler
        VENDOR_ID       : [0][0][0][0]
        ENCODER         : Lavc61.19.100 libx265
        BPS             : 970570
        DURATION        : 00:23:46.549708333
        NUMBER_OF_FRAMES: 34203
        NUMBER_OF_BYTES : 173070752
        _STATISTICS_WRITING_APP: mkvpropedit v66.0.0 ('Josie') 64-bit
        _STATISTICS_WRITING_DATE_UTC: 2025-05-30 09:20:42
        _STATISTICS_TAGS: BPS DURATION NUMBER_OF_FRAMES NUMBER_OF_BYTES
  Stream #0:1: Audio: aac (LC), 48000 Hz, stereo, fltp (default)
      Metadata:
        HANDLER_NAME    : SoundHandler
        VENDOR_ID       : [0][0][0][0]
        ENCODER         : Lavc61.19.100 aac
        BPS             : 193650
        DURATION        : 00:23:47.712000000
        NUMBER_OF_FRAMES: 66925
        NUMBER_OF_BYTES : 34559659
        _STATISTICS_WRITING_APP: mkvpropedit v66.0.0 ('Josie') 64-bit
        _STATISTICS_WRITING_DATE_UTC: 2025-05-30 09:20:42
        _STATISTICS_TAGS: BPS DURATION NUMBER_OF_FRAMES NUMBER_OF_BYTES
Input #1, mov,mp4,m4a,3gp,3g2,mj2, from 'G:\Аниме\Онгоинги\!_36_Осень_2024\DreamCast\Вы правда женитесь\[DC] Kekkon Surutte Hontou Desuka - 12 END_Telegram.mp4':
  Metadata:
    major_brand     : isom
    minor_version   : 512
    compatible_brands: isomiso2avc1mp41
    encoder         : Lavf60.16.100
  Duration: 00:23:47.68, start: 0.000000, bitrate: 3872 kb/s
  Stream #1:0[0x1](und): Video: h264 (High) (avc1 / 0x31637661), yuv420p(tv, bt709, progressive), 1920x1080 [SAR 1:1 DAR 16:9], 3727 kb/s, 23.98 fps, 23.98 tbr, 24k tbn (default)
      Metadata:
        handler_name    : VideoHandler
        vendor_id       : [0][0][0][0]
        encoder         : Lavc60.31.102 h264_qsv
  Stream #1:1[0x2](und): Audio: aac (HE-AACv2) (mp4a / 0x6134706D), 48000 Hz, stereo, fltp, 144 kb/s (default)
      Metadata:
        handler_name    : SoundHandler
        vendor_id       : [0][0][0][0]
Stream mapping:
  Stream #0:0 (hevc) -> settb:default
  Stream #1:0 (h264) -> settb:default
  psnr:default -> Stream #0:0 (wrapped_avframe)
  Stream #0:1 -> #0:1 (aac (native) -> pcm_s16le (native))
Output #0, null, to 'pipe:':
  Metadata:
    COMPATIBLE_BRANDS: isomiso2avc1mp41
    MAJOR_BRAND     : isom
    MINOR_VERSION   : 512
    encoder         : Lavf61.7.100
  Stream #0:0: Video: wrapped_avframe, yuv420p10le(tv, bt709, progressive), 1920x1080 [SAR 1:1 DAR 16:9], q=2-31, 200 kb/s, 23.98 fps, 23.98 tbn
      Metadata:
        encoder         : Lavc61.19.100 wrapped_avframe
  Stream #0:1: Audio: pcm_s16le, 48000 Hz, stereo, s16, 1536 kb/s (default)
      Metadata:
        HANDLER_NAME    : SoundHandler
        VENDOR_ID       : [0][0][0][0]
        _STATISTICS_TAGS: BPS DURATION NUMBER_OF_FRAMES NUMBER_OF_BYTES
        BPS             : 193650
        DURATION        : 00:23:47.712000000
        NUMBER_OF_FRAMES: 66925
        NUMBER_OF_BYTES : 34559659
        _STATISTICS_WRITING_APP: mkvpropedit v66.0.0 ('Josie') 64-bit
        _STATISTICS_WRITING_DATE_UTC: 2025-05-30 09:20:42
        encoder         : Lavc61.19.100 pcm_s16le
frame=  168 fps=0.0 q=-0.0 size=N/A time=00:00:07.00 bitrate=N/A speed=13.8x    frame=  375 fps=363 q=-0.0 size=N/A time=00:00:15.64 bitrate=N/A speed=15.1x    frame=  612 fps=397 q=-0.0 size=N/A time=00:00:25.52 bitrate=N/A speed=16.5x    frame=  860 fps=416 q=-0.0 size=N/A time=00:00:35.86 bitrate=N/A speed=17.3x    frame= 1072 fps=413 q=-0.0 size=N/A time=00:00:44.71 bitrate=N/A speed=17.2x    frame= 1315 fps=424 q=-0.0 size=N/A time=00:00:54.84 bitrate=N/A speed=17.7x    frame= 1557 fps=430 q=-0.0 size=N/A time=00:01:04.93 bitrate=N/A speed=17.9x    frame= 1786 fps=431 q=-0.0 size=N/A time=00:01:14.49 bitrate=N/A speed=  18x    frame= 2019 fps=434 q=-0.0 size=N/A time=00:01:24.20 bitrate=N/A speed=18.1x    frame= 2229 fps=432 q=-0.0 size=N/A time=00:01:32.96 bitrate=N/A speed=  18x    frame= 2413 fps=424 q=-0.0 size=N/A time=00:01:40.64 bitrate=N/A speed=17.7x    frame= 2643 fps=427 q=-0.0 size=N/A time=00:01:50.23 bitrate=N/A speed=17.8x    frame= 2859 fps=426 q=-0.0 size=N/A time=00:01:59.24 bitrate=N/A speed=17.8x    frame= 3096 fps=428 q=-0.0 size=N/A time=00:02:09.12 bitrate=N/A speed=17.8x    frame= 3309 fps=427 q=-0.0 size=N/A time=00:02:18.01 bitrate=N/A speed=17.8x    frame= 3568 fps=432 q=-0.0 size=N/A time=00:02:28.81 bitrate=N/A speed=  18x    frame= 3823 fps=436 q=-0.0 size=N/A time=00:02:39.45 bitrate=N/A speed=18.2x    frame= 4087 fps=440 q=-0.0 size=N/A time=00:02:50.46 bitrate=N/A speed=18.3x    frame= 4312 fps=440 q=-0.0 size=N/A time=00:02:59.84 bitrate=N/A speed=18.3x    frame= 4566 fps=442 q=-0.0 size=N/A time=00:03:10.44 bitrate=N/A speed=18.4x    frame= 4811 fps=444 q=-0.0 size=N/A time=00:03:20.65 bitrate=N/A speed=18.5x    frame= 5048 fps=444 q=-0.0 size=N/A time=00:03:30.54 bitrate=N/A speed=18.5x    frame= 5288 fps=446 q=-0.0 size=N/A time=00:03:40.55 bitrate=N/A speed=18.6x    frame= 5527 fps=446 q=-0.0 size=N/A time=00:03:50.52 bitrate=N/A speed=18.6x    frame= 5757 fps=446 q=-0.0 size=N/A time=00:04:00.11 bitrate=N/A speed=18.6x    frame= 6002 fps=447 q=-0.0 size=N/A time=00:04:10.33 bitrate=N/A speed=18.7x    frame= 6242 fps=448 q=-0.0 size=N/A time=00:04:20.34 bitrate=N/A speed=18.7x    frame= 6507 fps=450 q=-0.0 size=N/A time=00:04:31.39 bitrate=N/A speed=18.8x    frame= 6774 fps=453 q=-0.0 size=N/A time=00:04:42.53 bitrate=N/A speed=18.9x    frame= 7053 fps=456 q=-0.0 size=N/A time=00:04:54.16 bitrate=N/A speed=  19x    frame= 7330 fps=458 q=-0.0 size=N/A time=00:05:05.72 bitrate=N/A speed=19.1x    frame= 7593 fps=460 q=-0.0 size=N/A time=00:05:16.69 bitrate=N/A speed=19.2x    frame= 7854 fps=461 q=-0.0 size=N/A time=00:05:27.57 bitrate=N/A speed=19.2x    frame= 8107 fps=462 q=-0.0 size=N/A time=00:05:38.12 bitrate=N/A speed=19.3x    frame= 8343 fps=462 q=-0.0 size=N/A time=00:05:47.97 bitrate=N/A speed=19.3x    frame= 8595 fps=463 q=-0.0 size=N/A time=00:05:58.48 bitrate=N/A speed=19.3x    frame= 8845 fps=463 q=-0.0 size=N/A time=00:06:08.91 bitrate=N/A speed=19.3x    frame= 9087 fps=463 q=-0.0 size=N/A time=00:06:19.00 bitrate=N/A speed=19.3x    frame= 9324 fps=464 q=-0.0 size=N/A time=00:06:28.88 bitrate=N/A speed=19.3x    frame= 9543 fps=462 q=-0.0 size=N/A time=00:06:38.02 bitrate=N/A speed=19.3x    frame= 9775 fps=462 q=-0.0 size=N/A time=00:06:47.69 bitrate=N/A speed=19.3x    frame=10022 fps=463 q=-0.0 size=N/A time=00:06:58.00 bitrate=N/A speed=19.3x    frame=10269 fps=463 q=-0.0 size=N/A time=00:07:08.30 bitrate=N/A speed=19.3x    frame=10483 fps=462 q=-0.0 size=N/A time=00:07:17.22 bitrate=N/A speed=19.3x    frame=10723 fps=462 q=-0.0 size=N/A time=00:07:27.28 bitrate=N/A speed=19.3x    frame=10952 fps=462 q=-0.0 size=N/A time=00:07:36.78 bitrate=N/A speed=19.3x    frame=11191 fps=461 q=-0.0 size=N/A time=00:07:46.75 bitrate=N/A speed=19.2x    frame=11381 fps=460 q=-0.0 size=N/A time=00:07:54.68 bitrate=N/A speed=19.2x    frame=11638 fps=460 q=-0.0 size=N/A time=00:08:05.40 bitrate=N/A speed=19.2x    frame=11884 fps=461 q=-0.0 size=N/A time=00:08:15.66 bitrate=N/A speed=19.2x    frame=12098 fps=460 q=-0.0 size=N/A time=00:08:24.58 bitrate=N/A speed=19.2x    frame=12288 fps=458 q=-0.0 size=N/A time=00:08:32.51 bitrate=N/A speed=19.1x    frame=12535 fps=459 q=-0.0 size=N/A time=00:08:42.81 bitrate=N/A speed=19.1x    frame=12752 fps=458 q=-0.0 size=N/A time=00:08:51.86 bitrate=N/A speed=19.1x    frame=12999 fps=458 q=-0.0 size=N/A time=00:09:02.16 bitrate=N/A speed=19.1x    frame=13197 fps=457 q=-0.0 size=N/A time=00:09:10.42 bitrate=N/A speed=19.1x    frame=13398 fps=456 q=-0.0 size=N/A time=00:09:18.80 bitrate=N/A speed=  19x    frame=13578 fps=454 q=-0.0 size=N/A time=00:09:26.31 bitrate=N/A speed=18.9x    frame=13818 fps=454 q=-0.0 size=N/A time=00:09:36.32 bitrate=N/A speed=18.9x    frame=14073 fps=455 q=-0.0 size=N/A time=00:09:46.96 bitrate=N/A speed=  19x    frame=14340 fps=456 q=-0.0 size=N/A time=00:09:58.09 bitrate=N/A speed=  19x    frame=14599 fps=456 q=-0.0 size=N/A time=00:10:08.89 bitrate=N/A speed=  19x    frame=14786 fps=455 q=-0.0 size=N/A time=00:10:16.69 bitrate=N/A speed=  19x    frame=15021 fps=455 q=-0.0 size=N/A time=00:10:26.50 bitrate=N/A speed=  19x    frame=15250 fps=454 q=-0.0 size=N/A time=00:10:36.05 bitrate=N/A speed=18.9x    frame=15478 fps=454 q=-0.0 size=N/A time=00:10:45.56 bitrate=N/A speed=18.9x    frame=15712 fps=454 q=-0.0 size=N/A time=00:10:55.32 bitrate=N/A speed=18.9x    frame=15961 fps=455 q=-0.0 size=N/A time=00:11:05.70 bitrate=N/A speed=  19x    frame=16230 fps=456 q=-0.0 size=N/A time=00:11:16.92 bitrate=N/A speed=  19x    frame=16463 fps=456 q=-0.0 size=N/A time=00:11:26.64 bitrate=N/A speed=  19x    frame=16717 fps=456 q=-0.0 size=N/A time=00:11:37.23 bitrate=N/A speed=  19x    frame=16963 fps=456 q=-0.0 size=N/A time=00:11:47.49 bitrate=N/A speed=  19x    frame=17207 fps=457 q=-0.0 size=N/A time=00:11:57.67 bitrate=N/A speed=  19x    frame=17418 fps=456 q=-0.0 size=N/A time=00:12:06.47 bitrate=N/A speed=  19x    frame=17639 fps=456 q=-0.0 size=N/A time=00:12:15.69 bitrate=N/A speed=  19x    frame=17898 fps=456 q=-0.0 size=N/A time=00:12:26.49 bitrate=N/A speed=  19x    frame=18171 fps=457 q=-0.0 size=N/A time=00:12:37.88 bitrate=N/A speed=19.1x    frame=18398 fps=457 q=-0.0 size=N/A time=00:12:47.34 bitrate=N/A speed=19.1x    frame=18616 fps=456 q=-0.0 size=N/A time=00:12:56.44 bitrate=N/A speed=  19x    frame=18862 fps=457 q=-0.0 size=N/A time=00:13:06.70 bitrate=N/A speed=  19x    frame=19047 fps=455 q=-0.0 size=N/A time=00:13:14.41 bitrate=N/A speed=  19x    frame=19296 fps=456 q=-0.0 size=N/A time=00:13:24.80 bitrate=N/A speed=  19x    frame=19511 fps=455 q=-0.0 size=N/A time=00:13:33.77 bitrate=N/A speed=  19x    frame=19736 fps=455 q=-0.0 size=N/A time=00:13:43.15 bitrate=N/A speed=  19x    frame=19956 fps=455 q=-0.0 size=N/A time=00:13:52.33 bitrate=N/A speed=  19x    frame=20183 fps=455 q=-0.0 size=N/A time=00:14:01.79 bitrate=N/A speed=  19x    frame=20411 fps=454 q=-0.0 size=N/A time=00:14:11.30 bitrate=N/A speed=  19x    frame=20592 fps=453 q=-0.0 size=N/A time=00:14:18.85 bitrate=N/A speed=18.9x    frame=20821 fps=453 q=-0.0 size=N/A time=00:14:28.40 bitrate=N/A speed=18.9x    frame=21058 fps=453 q=-0.0 size=N/A time=00:14:38.29 bitrate=N/A speed=18.9x    frame=21288 fps=453 q=-0.0 size=N/A time=00:14:47.88 bitrate=N/A speed=18.9x    frame=21503 fps=453 q=-0.0 size=N/A time=00:14:56.85 bitrate=N/A speed=18.9x    frame=21713 fps=452 q=-0.0 size=N/A time=00:15:05.61 bitrate=N/A speed=18.9x    frame=21969 fps=453 q=-0.0 size=N/A time=00:15:16.29 bitrate=N/A speed=18.9x    frame=22239 fps=453 q=-0.0 size=N/A time=00:15:27.55 bitrate=N/A speed=18.9x    frame=22513 fps=454 q=-0.0 size=N/A time=00:15:38.97 bitrate=N/A speed=18.9x    frame=22779 fps=455 q=-0.0 size=N/A time=00:15:50.07 bitrate=N/A speed=  19x    frame=23012 fps=455 q=-0.0 size=N/A time=00:15:59.79 bitrate=N/A speed=  19x    frame=23232 fps=455 q=-0.0 size=N/A time=00:16:08.96 bitrate=N/A speed=  19x    frame=23404 fps=453 q=-0.0 size=N/A time=00:16:16.14 bitrate=N/A speed=18.9x    frame=23607 fps=453 q=-0.0 size=N/A time=00:16:24.60 bitrate=N/A speed=18.9x    frame=23834 fps=453 q=-0.0 size=N/A time=00:16:34.07 bitrate=N/A speed=18.9x    frame=24072 fps=453 q=-0.0 size=N/A time=00:16:44.00 bitrate=N/A speed=18.9x    frame=24289 fps=452 q=-0.0 size=N/A time=00:16:53.05 bitrate=N/A speed=18.9x    frame=24536 fps=453 q=-0.0 size=N/A time=00:17:03.35 bitrate=N/A speed=18.9x    frame=24753 fps=452 q=-0.0 size=N/A time=00:17:12.40 bitrate=N/A speed=18.9x    frame=25014 fps=453 q=-0.0 size=N/A time=00:17:23.29 bitrate=N/A speed=18.9x    frame=25210 fps=452 q=-0.0 size=N/A time=00:17:31.46 bitrate=N/A speed=18.9x    frame=25464 fps=453 q=-0.0 size=N/A time=00:17:42.06 bitrate=N/A speed=18.9x    frame=25709 fps=453 q=-0.0 size=N/A time=00:17:52.32 bitrate=N/A speed=18.9x    frame=25997 fps=454 q=-0.0 size=N/A time=00:18:04.29 bitrate=N/A speed=18.9x    frame=26263 fps=454 q=-0.0 size=N/A time=00:18:15.38 bitrate=N/A speed=18.9x    frame=26494 fps=454 q=-0.0 size=N/A time=00:18:25.02 bitrate=N/A speed=18.9x    frame=26673 fps=453 q=-0.0 size=N/A time=00:18:32.48 bitrate=N/A speed=18.9x    frame=26879 fps=453 q=-0.0 size=N/A time=00:18:41.07 bitrate=N/A speed=18.9x    frame=27107 fps=453 q=-0.0 size=N/A time=00:18:50.58 bitrate=N/A speed=18.9x    frame=27339 fps=453 q=-0.0 size=N/A time=00:19:00.26 bitrate=N/A speed=18.9x    frame=27591 fps=453 q=-0.0 size=N/A time=00:19:10.77 bitrate=N/A speed=18.9x    frame=27836 fps=453 q=-0.0 size=N/A time=00:19:20.99 bitrate=N/A speed=18.9x    frame=28072 fps=453 q=-0.0 size=N/A time=00:19:30.83 bitrate=N/A speed=18.9x    frame=28343 fps=454 q=-0.0 size=N/A time=00:19:42.13 bitrate=N/A speed=18.9x    frame=28608 fps=454 q=-0.0 size=N/A time=00:19:53.19 bitrate=N/A speed=18.9x    frame=28884 fps=455 q=-0.0 size=N/A time=00:20:04.70 bitrate=N/A speed=  19x    frame=29144 fps=455 q=-0.0 size=N/A time=00:20:15.54 bitrate=N/A speed=  19x    frame=29369 fps=455 q=-0.0 size=N/A time=00:20:24.93 bitrate=N/A speed=  19x    frame=29603 fps=455 q=-0.0 size=N/A time=00:20:34.69 bitrate=N/A speed=  19x    frame=29829 fps=455 q=-0.0 size=N/A time=00:20:44.11 bitrate=N/A speed=  19x    frame=30031 fps=455 q=-0.0 size=N/A time=00:20:52.54 bitrate=N/A speed=  19x    frame=30231 fps=454 q=-0.0 size=N/A time=00:21:00.88 bitrate=N/A speed=18.9x    frame=30452 fps=454 q=-0.0 size=N/A time=00:21:10.10 bitrate=N/A speed=18.9x    frame=30678 fps=454 q=-0.0 size=N/A time=00:21:19.52 bitrate=N/A speed=18.9x    frame=30886 fps=453 q=-0.0 size=N/A time=00:21:28.20 bitrate=N/A speed=18.9x    frame=31124 fps=453 q=-0.0 size=N/A time=00:21:38.13 bitrate=N/A speed=18.9x    frame=31374 fps=454 q=-0.0 size=N/A time=00:21:48.55 bitrate=N/A speed=18.9x    frame=31594 fps=453 q=-0.0 size=N/A time=00:21:57.73 bitrate=N/A speed=18.9x    frame=31794 fps=453 q=-0.0 size=N/A time=00:22:06.07 bitrate=N/A speed=18.9x    frame=31983 fps=452 q=-0.0 size=N/A time=00:22:13.95 bitrate=N/A speed=18.9x    frame=32189 fps=452 q=-0.0 size=N/A time=00:22:22.54 bitrate=N/A speed=18.8x    frame=32406 fps=452 q=-0.0 size=N/A time=00:22:31.60 bitrate=N/A speed=18.8x    frame=32639 fps=452 q=-0.0 size=N/A time=00:22:41.31 bitrate=N/A speed=18.8x    frame=32853 fps=451 q=-0.0 size=N/A time=00:22:50.24 bitrate=N/A speed=18.8x    frame=33038 fps=451 q=-0.0 size=N/A time=00:22:57.95 bitrate=N/A speed=18.8x    frame=33248 fps=450 q=-0.0 size=N/A time=00:23:06.71 bitrate=N/A speed=18.8x    frame=33503 fps=451 q=-0.0 size=N/A time=00:23:17.35 bitrate=N/A speed=18.8x    frame=33751 fps=451 q=-0.0 size=N/A time=00:23:27.69 bitrate=N/A speed=18.8x    frame=33993 fps=451 q=-0.0 size=N/A time=00:23:37.79 bitrate=N/A speed=18.8x    frame=34192 fps=451 q=-0.0 size=N/A time=00:23:46.09 bitrate=N/A speed=18.8x    [Parsed_psnr_10 @ 00000260f0ebcb40] PSNR y:47.871397 u:51.226697 v:51.585236 average:48.762451 min:40.793839 max:inf
[out#0/null @ 00000260f09546c0] video:14697KiB audio:267700KiB subtitle:0KiB other streams:0KiB global headers:0KiB muxing overhead: unknown
frame=34203 fps=451 q=-0.0 Lsize=N/A time=00:23:46.55 bitrate=N/A speed=18.8x    
